<svg width="125" height="46" viewBox="0 0 125 46" fill="none" xmlns="http://www.w3.org/2000/svg">
<path d="M82.8836 25.5567C82.7602 25.5663 82.6368 25.5758 82.5229 25.5758C82.0008 25.5758 81.6211 25.4327 81.3742 25.1465C81.1274 24.8604 80.9945 24.3834 80.9945 23.7442V19.6136H83.2443V17.2668H80.9945V13.9375H78.2606V17.2668H76.9126H74.3495V13.9375H71.6156V17.2668H70.2676V19.604H71.6156V23.7251C71.6156 25.1465 71.9573 26.2341 72.6408 26.9495C73.3243 27.665 74.3115 28.0275 75.6026 28.0275C75.7829 28.0275 75.9633 28.018 76.1532 27.9893C76.3335 27.9607 76.5044 27.9321 76.6468 27.9035L76.7227 27.8844V25.4709L76.5993 25.4995C76.4854 25.5281 76.362 25.5472 76.2386 25.5567C76.1152 25.5663 75.9918 25.5758 75.8779 25.5758C75.3558 25.5758 74.976 25.4327 74.7292 25.1465C74.4824 24.8604 74.3495 24.3834 74.3495 23.7442V19.6136H76.9126H78.2606V23.7347C78.2606 25.1561 78.6023 26.2436 79.2858 26.9591C79.9693 27.6745 80.9566 28.037 82.2476 28.037C82.428 28.037 82.6083 28.0275 82.7982 27.9989C82.9785 27.9703 83.1494 27.9416 83.2918 27.913L83.3677 27.8939V25.4709L83.2443 25.4995C83.1304 25.5186 83.007 25.5377 82.8836 25.5567Z" fill="white"/>
<path d="M10.0719 31.8431H13.0337L7.95503 17.9058H5.07869L0 31.8431H2.88583L3.81614 29.1339H9.13215L10.0719 31.8431ZM6.45516 21.1778L8.2683 26.6345H4.661L6.45516 21.1778Z" fill="white"/>
<path d="M102.438 29.3345H47.4453V31.8339H102.438V29.3345Z" fill="#F00037"/>
<path d="M16.6129 17.2764H13.8789V31.8433H16.6129V17.2764Z" fill="white"/>
<path d="M30.2924 20.9678C29.6658 20.9678 29.0203 21.1204 28.3938 21.4352C27.8052 21.7214 27.3211 22.1698 26.9509 22.7612C26.6661 22.2175 26.2959 21.7882 25.8402 21.4829C25.3371 21.1395 24.7011 20.9678 23.9701 20.9678C23.3246 20.9678 22.7266 21.1395 22.176 21.4638C21.7488 21.7214 21.4165 22.0744 21.1697 22.5227V21.2253H18.5117V31.8334H21.2457V25.6136C21.2457 24.9935 21.407 24.4783 21.7298 24.0872C22.0431 23.7056 22.5272 23.5053 23.1632 23.5053C23.8182 23.5053 24.2929 23.6961 24.5492 24.0777C24.815 24.4688 24.9574 24.9839 24.9574 25.604V31.8239H27.6913V25.604C27.6913 24.9839 27.8527 24.4688 28.1755 24.0777C28.4887 23.6961 28.9729 23.4958 29.6089 23.4958C30.2639 23.4958 30.7385 23.6866 30.9949 24.0681C31.2607 24.4593 31.403 24.9744 31.403 25.5945V31.8143H34.137V25.5945C34.137 24.154 33.8047 22.9997 33.1402 22.1888C32.4473 21.3875 31.498 20.9678 30.2924 20.9678Z" fill="white"/>
<path d="M45.3194 30.8603C45.234 30.4883 45.1865 30.0399 45.1865 29.5343V24.7073C45.1865 24.1826 45.1106 23.6961 44.9682 23.2382C44.8258 22.7803 44.5695 22.3796 44.2182 22.0457C43.867 21.7119 43.4018 21.4448 42.8228 21.254C42.2532 21.0632 41.5317 20.9678 40.6774 20.9678C39.9559 20.9678 39.3104 21.0536 38.7503 21.2253C38.1808 21.3971 37.6871 21.6355 37.2789 21.9504C36.8707 22.2556 36.5385 22.6277 36.2917 23.0474C36.0449 23.4672 35.874 23.9346 35.798 24.4211L35.7791 24.5356H38.6079L38.6269 24.4593C38.7408 24.0491 38.9687 23.7533 39.3199 23.5625C39.6806 23.3622 40.1458 23.2573 40.6964 23.2573C41.2754 23.2573 41.7311 23.3431 42.0254 23.5053C42.3102 23.6675 42.4431 23.906 42.4431 24.2494C42.4431 24.6405 42.2247 24.9172 41.7596 25.0984C41.2754 25.2892 40.478 25.4609 39.4053 25.604C38.9212 25.6708 38.4276 25.7662 37.9434 25.8902C37.4498 26.0142 37.0131 26.1955 36.6239 26.4244C36.2347 26.6629 35.912 26.9777 35.6651 27.3593C35.4183 27.7409 35.2949 28.237 35.2949 28.838C35.2949 29.4008 35.4088 29.8968 35.6272 30.3071C35.8455 30.7173 36.1398 31.0511 36.5005 31.3087C36.8612 31.5663 37.2694 31.7571 37.7346 31.8715C38.1903 31.986 38.6649 32.0433 39.1395 32.0433C40.0414 32.0433 40.7818 31.8715 41.3609 31.5472C41.845 31.2706 42.2437 30.908 42.5475 30.4883C42.576 30.765 42.6139 31.0034 42.6614 31.1847C42.7278 31.4423 42.7943 31.6331 42.8607 31.7666L42.8892 31.8239H45.5852L45.5377 31.6903C45.4808 31.5281 45.4048 31.2419 45.3194 30.8603ZM42.462 26.7869V27.7409C42.462 28.361 42.2247 28.838 41.7311 29.21C41.2375 29.582 40.573 29.7633 39.7661 29.7633C39.168 29.7633 38.7408 29.6679 38.4845 29.4866C38.2377 29.3054 38.1143 29.0669 38.1143 28.7521C38.1143 28.3705 38.2567 28.1129 38.5415 27.9603C38.8548 27.7981 39.2914 27.6646 39.842 27.5596C40.4021 27.4547 40.9242 27.3402 41.3799 27.2258C41.7786 27.1208 42.1393 26.9682 42.462 26.7869Z" fill="white"/>
<path d="M56.2929 20.4242C56.834 20.1189 57.2232 19.7469 57.4511 19.3081C57.7074 18.8216 57.8403 18.2778 57.8403 17.6863C57.8403 16.513 57.4606 15.5876 56.7106 14.9199C55.9607 14.2616 54.9165 13.9277 53.597 13.9277H47.4551V27.8651H53.8912C54.5842 27.8651 55.2202 27.7697 55.7708 27.5789C56.3309 27.3881 56.8151 27.1115 57.2138 26.7585C57.6125 26.4055 57.9257 25.9763 58.1441 25.4707C58.3624 24.9651 58.4763 24.3927 58.4763 23.7631C58.4763 22.9427 58.2675 22.2177 57.8593 21.6357C57.4701 21.1111 56.948 20.7009 56.2929 20.4242ZM50.2175 21.8742H53.616C54.2994 21.8742 54.8026 22.0269 55.1158 22.3226C55.4291 22.6183 55.5905 23.0571 55.5905 23.6391C55.5905 24.2591 55.4006 24.7075 55.0304 24.9746C54.6507 25.2417 54.1855 25.3848 53.6539 25.3848H50.2175V21.8742ZM54.6981 18.9742C54.4228 19.2413 54.0241 19.3749 53.502 19.3749H50.2175V16.3985H53.502C54.0621 16.3985 54.4703 16.5416 54.7266 16.8182C54.9829 17.0949 55.1158 17.4669 55.1158 17.9153C55.1063 18.3541 54.9734 18.6975 54.6981 18.9742Z" fill="white"/>
<path d="M68.6424 18.8504C68.1677 18.2876 67.5792 17.8297 66.8862 17.5053C66.2027 17.181 65.4338 17.0093 64.5984 17.0093C63.8674 17.0093 63.165 17.1524 62.51 17.429C61.855 17.7057 61.2854 18.0968 60.8107 18.5929C60.3361 19.0889 59.9564 19.6804 59.6716 20.3672C59.3963 21.0541 59.2539 21.7982 59.2539 22.5899C59.2539 23.3913 59.3963 24.1449 59.6811 24.8127C59.9659 25.4805 60.3646 26.0719 60.8677 26.5584C61.3708 27.0545 61.9594 27.4361 62.6334 27.7127C63.2979 27.9894 64.0288 28.1229 64.7977 28.1229C66.0033 28.1229 67.0476 27.8367 67.9019 27.2739C68.7563 26.7111 69.3448 25.8811 69.6581 24.8127L69.6961 24.6887H66.7912L66.7628 24.7364C66.3925 25.3469 65.728 25.6617 64.7977 25.6617C64.0573 25.6617 63.4403 25.4709 62.9656 25.0989C62.5195 24.7459 62.2252 24.2021 62.0923 23.4962H69.8669L69.8764 23.4104C69.9714 22.5136 69.9049 21.6646 69.6866 20.8824C69.4777 20.1001 69.1265 19.4133 68.6424 18.8504ZM62.1777 21.4738C62.3391 20.8442 62.6334 20.3481 63.0605 19.9952C63.5067 19.6231 64.0288 19.4323 64.6079 19.4323C65.2534 19.4323 65.7945 19.6136 66.2122 19.9856C66.6109 20.3291 66.8862 20.8347 67.0191 21.4834H62.1777V21.4738Z" fill="white"/>
<path d="M93.3904 18.8504C92.9158 18.2876 92.3272 17.8297 91.6342 17.5053C90.9507 17.181 90.1818 17.0093 89.3464 17.0093C88.6155 17.0093 87.913 17.1524 87.258 17.429C86.603 17.7057 86.0334 18.0968 85.5588 18.5929C85.0841 19.0889 84.7044 19.6804 84.4196 20.3672C84.1443 21.0541 84.002 21.7982 84.002 22.5899C84.002 23.3913 84.1443 24.1449 84.4291 24.8127C84.7139 25.4805 85.1126 26.0719 85.6157 26.5584C86.1189 27.0545 86.7074 27.4361 87.3814 27.7127C88.0459 27.9894 88.7769 28.1229 89.5458 28.1229C90.7514 28.1229 91.7956 27.8367 92.65 27.2739C93.5043 26.7111 94.0929 25.8811 94.4061 24.8127L94.4441 24.6887H91.5393L91.5108 24.7364C91.1406 25.3469 90.4761 25.6617 89.5458 25.6617C88.8054 25.6617 88.1883 25.4709 87.7137 25.0989C87.2675 24.7459 86.9732 24.2021 86.8403 23.4962H94.615L94.6245 23.4104C94.7194 22.5136 94.653 21.6646 94.4346 20.8824C94.2258 20.1001 93.8651 19.4133 93.3904 18.8504ZM86.9258 21.4738C87.0871 20.8442 87.3814 20.3481 87.8086 19.9952C88.2548 19.6231 88.7769 19.4323 89.3559 19.4323C90.0015 19.4323 90.5425 19.6136 90.9602 19.9856C91.3589 20.3291 91.6342 20.8347 91.7671 21.4834H86.9258V21.4738Z" fill="white"/>
<path d="M102.351 17.1426C102.018 17.114 101.677 17.1235 101.316 17.1617C100.955 17.1999 100.595 17.3048 100.243 17.4479C99.8921 17.6005 99.5693 17.8199 99.2655 18.0966C99.0662 18.2874 98.8858 18.5163 98.7339 18.7739V17.2666H96V27.8747H98.8479V22.3989C98.8479 21.4831 99.1421 20.7772 99.7212 20.3193C100.31 19.8614 101.174 19.7183 102.313 19.8805L102.427 19.8996V17.1522L102.351 17.1426Z" fill="white"/>
</svg>
