<svg width="135" height="25" viewBox="0 0 135 25" fill="none" xmlns="http://www.w3.org/2000/svg">
<path d="M108.539 15.64C108.378 15.6523 108.217 15.6647 108.069 15.6647C107.387 15.6647 106.892 15.4792 106.57 15.1081C106.247 14.737 106.074 14.1185 106.074 13.2897V7.93343H109.01V4.89039H106.074V0.573242H102.506V4.89039H100.747H97.4016V0.573242H93.8335V4.89039H92.0742V7.92106H93.8335V13.2649C93.8335 15.1081 94.2795 16.5183 95.1715 17.446C96.0635 18.3738 97.352 18.8438 99.0369 18.8438C99.2723 18.8438 99.5077 18.8315 99.7555 18.7943C99.9909 18.7572 100.214 18.7201 100.4 18.683L100.499 18.6583V15.5286L100.338 15.5658C100.189 15.6029 100.028 15.6276 99.867 15.64C99.7059 15.6523 99.5449 15.6647 99.3962 15.6647C98.7148 15.6647 98.2192 15.4792 97.8971 15.1081C97.575 14.737 97.4016 14.1185 97.4016 13.2897V7.93343H100.747H102.506V13.2773C102.506 15.1204 102.952 16.5306 103.844 17.4584C104.736 18.3861 106.024 18.8562 107.709 18.8562C107.945 18.8562 108.18 18.8438 108.428 18.8067C108.663 18.7696 108.886 18.7325 109.072 18.6954L109.171 18.6706V15.5286L109.01 15.5658C108.862 15.5905 108.7 15.6152 108.539 15.64Z" fill="#232323"/>
<path d="M13.518 23.7904H17.3834L10.7552 5.71777H7.00125L0.373047 23.7904H4.13935L5.35349 20.2773H12.2914L13.518 23.7904ZM8.79768 9.9607L11.164 17.0364H6.45613L8.79768 9.9607Z" fill="#232323"/>
<path d="M134.063 20.5371H62.293V23.7781H134.063V20.5371Z" fill="#F00037"/>
<path d="M22.0525 4.90234H18.4844V23.7914H22.0525V4.90234Z" fill="#232323"/>
<path d="M39.9043 9.68945C39.0866 9.68945 38.2441 9.88737 37.4264 10.2956C36.6583 10.6667 36.0264 11.2481 35.5433 12.015C35.1716 11.3099 34.6884 10.7533 34.0937 10.3574C33.4371 9.91211 32.607 9.68945 31.6531 9.68945C30.8106 9.68945 30.0301 9.91211 29.3115 10.3327C28.754 10.6667 28.3204 11.1244 27.9983 11.7058V10.0234H24.5293V23.779H28.0974V15.7137C28.0974 14.9096 28.308 14.2416 28.7292 13.7345C29.1381 13.2397 29.7699 12.9799 30.6 12.9799C31.4548 12.9799 32.0743 13.2273 32.4088 13.7221C32.7557 14.2293 32.9415 14.8972 32.9415 15.7013V23.7666H36.5096V15.7013C36.5096 14.8972 36.7202 14.2293 37.1415 13.7221C37.5503 13.2273 38.1822 12.9675 39.0122 12.9675C39.8671 12.9675 40.4866 13.2149 40.8211 13.7097C41.168 14.2169 41.3538 14.8849 41.3538 15.6889V23.7542H44.9219V15.6889C44.9219 13.8211 44.4883 12.3243 43.621 11.2728C42.7166 10.2337 41.4777 9.68945 39.9043 9.68945Z" fill="#232323"/>
<path d="M59.5166 22.5172C59.4051 22.0348 59.3431 21.4534 59.3431 20.7978V14.5385C59.3431 13.8582 59.244 13.2273 59.0582 12.6335C58.8723 12.0398 58.5378 11.5202 58.0794 11.0873C57.621 10.6543 57.0139 10.308 56.2582 10.0606C55.5149 9.81315 54.5733 9.68945 53.4583 9.68945C52.5167 9.68945 51.6742 9.80078 50.9433 10.0234C50.1999 10.2461 49.5557 10.5554 49.0229 10.9636C48.4902 11.3594 48.0566 11.8418 47.7345 12.3861C47.4123 12.9304 47.1893 13.5365 47.0902 14.1674L47.0654 14.3159H50.7574L50.7822 14.2169C50.9309 13.685 51.2282 13.3015 51.6866 13.0541C52.1574 12.7943 52.7645 12.6583 53.483 12.6583C54.2388 12.6583 54.8335 12.7696 55.2175 12.9799C55.5892 13.1902 55.7626 13.4994 55.7626 13.9448C55.7626 14.4519 55.4777 14.8107 54.8706 15.0457C54.2388 15.2931 53.1981 15.5158 51.7981 15.7013C51.1663 15.7879 50.522 15.9116 49.8902 16.0724C49.2459 16.2332 48.676 16.4682 48.1681 16.7651C47.6601 17.0744 47.2389 17.4826 46.9168 17.9774C46.5947 18.4722 46.4336 19.1154 46.4336 19.8948C46.4336 20.6246 46.5823 21.2678 46.8672 21.7997C47.1522 22.3317 47.5362 22.7646 48.007 23.0986C48.4778 23.4326 49.0105 23.68 49.6176 23.8284C50.2123 23.9769 50.8317 24.0511 51.4512 24.0511C52.6282 24.0511 53.5945 23.8284 54.3503 23.4079C54.9821 23.0491 55.5025 22.5791 55.8989 22.0348C55.9361 22.3935 55.9856 22.7028 56.0476 22.9378C56.1343 23.2718 56.221 23.5192 56.3078 23.6924L56.3449 23.7666H59.8635L59.8015 23.5934C59.7272 23.3831 59.6281 23.012 59.5166 22.5172ZM55.7874 17.2352V18.4722C55.7874 19.2762 55.4777 19.8948 54.8335 20.3772C54.1892 20.8596 53.322 21.0946 52.2689 21.0946C51.4884 21.0946 50.9309 20.9709 50.5964 20.7359C50.2742 20.5009 50.1132 20.1916 50.1132 19.7834C50.1132 19.2886 50.299 18.9546 50.6707 18.7567C51.0795 18.5464 51.6494 18.3732 52.368 18.2372C53.099 18.1011 53.7804 17.9527 54.3751 17.8042C54.8954 17.6681 55.3662 17.4702 55.7874 17.2352Z" fill="#232323"/>
<path d="M73.839 8.98456C74.5452 8.58872 75.0531 8.10629 75.3505 7.53726C75.685 6.90639 75.8584 6.2013 75.8584 5.43435C75.8584 3.91283 75.3629 2.71294 74.3841 1.84703C73.4054 0.993498 72.0426 0.560547 70.3205 0.560547H62.3047V18.6332H70.7045C71.609 18.6332 72.439 18.5095 73.1576 18.2621C73.8886 18.0147 74.5204 17.656 75.0408 17.1983C75.5611 16.7406 75.9699 16.1839 76.2549 15.5283C76.5398 14.8727 76.6885 14.1305 76.6885 13.3141C76.6885 12.2503 76.416 11.3101 75.8832 10.5556C75.3753 9.87521 74.6939 9.34329 73.839 8.98456ZM65.9099 10.8648H70.3453C71.2373 10.8648 71.8939 11.0627 72.3027 11.4462C72.7116 11.8297 72.9222 12.3987 72.9222 13.1533C72.9222 13.9573 72.6744 14.5387 72.1912 14.8851C71.6957 15.2314 71.0886 15.417 70.3948 15.417H65.9099V10.8648ZM71.7576 7.10431C71.3983 7.45067 70.878 7.62385 70.1966 7.62385H65.9099V3.76439H70.1966C70.9275 3.76439 71.4603 3.94994 71.7948 4.30868C72.1293 4.66741 72.3027 5.14984 72.3027 5.73123C72.2904 6.30026 72.1169 6.74558 71.7576 7.10431Z" fill="#232323"/>
<path d="M89.9619 6.94309C89.3424 6.21325 88.5743 5.61949 87.6699 5.19891C86.7779 4.77832 85.7743 4.55566 84.6841 4.55566C83.7301 4.55566 82.8133 4.74121 81.9585 5.09995C81.1036 5.45868 80.3603 5.96585 79.7408 6.60909C79.1213 7.25234 78.6258 8.01928 78.2541 8.90993C77.8948 9.80057 77.709 10.7654 77.709 11.7922C77.709 12.8312 77.8948 13.8085 78.2665 14.6744C78.6382 15.5403 79.1585 16.3072 79.8151 16.9381C80.4718 17.5813 81.2399 18.0761 82.1195 18.4349C82.9868 18.7936 83.9407 18.9668 84.9443 18.9668C86.5177 18.9668 87.8805 18.5957 88.9955 17.8659C90.1105 17.136 90.8787 16.0598 91.2875 14.6744L91.3371 14.5136H87.546L87.5088 14.5754C87.0256 15.3671 86.1584 15.7753 84.9443 15.7753C83.9779 15.7753 83.1726 15.5279 82.5531 15.0455C81.9709 14.5878 81.5868 13.8827 81.4133 12.9673H91.5601L91.5725 12.856C91.6964 11.6932 91.6096 10.5923 91.3247 9.57791C91.0521 8.56356 90.5937 7.67292 89.9619 6.94309ZM81.5248 10.3449C81.7355 9.52843 82.1195 8.88519 82.677 8.42749C83.2593 7.94506 83.9407 7.69766 84.6965 7.69766C85.5389 7.69766 86.2451 7.93269 86.7902 8.41512C87.3106 8.86045 87.6699 9.51606 87.8433 10.3572H81.5248V10.3449Z" fill="#232323"/>
<path d="M122.253 6.94309C121.633 6.21325 120.865 5.61949 119.961 5.19891C119.069 4.77832 118.065 4.55566 116.975 4.55566C116.021 4.55566 115.104 4.74121 114.249 5.09995C113.395 5.45868 112.651 5.96585 112.032 6.60909C111.412 7.25234 110.917 8.01928 110.545 8.90993C110.186 9.80057 110 10.7654 110 11.7922C110 12.8312 110.186 13.8085 110.558 14.6744C110.929 15.5403 111.45 16.3072 112.106 16.9381C112.763 17.5813 113.531 18.0761 114.411 18.4349C115.278 18.7936 116.232 18.9668 117.235 18.9668C118.809 18.9668 120.172 18.5957 121.287 17.8659C122.402 17.136 123.17 16.0598 123.579 14.6744L123.628 14.5136H119.837L119.8 14.5754C119.317 15.3671 118.449 15.7753 117.235 15.7753C116.269 15.7753 115.464 15.5279 114.844 15.0455C114.262 14.5878 113.878 13.8827 113.704 12.9673H123.851L123.863 12.856C123.987 11.6932 123.901 10.5923 123.616 9.57791C123.343 8.56356 122.872 7.67292 122.253 6.94309ZM113.816 10.3449C114.026 9.52843 114.411 8.88519 114.968 8.42749C115.55 7.94506 116.232 7.69766 116.987 7.69766C117.83 7.69766 118.536 7.93269 119.081 8.41512C119.602 8.86045 119.961 9.51606 120.134 10.3572H113.816V10.3449Z" fill="#232323"/>
<path d="M133.948 4.72861C133.515 4.6915 133.069 4.70387 132.598 4.75335C132.127 4.80283 131.657 4.9389 131.198 5.12445C130.74 5.32237 130.318 5.60688 129.922 5.96562C129.662 6.21302 129.426 6.5099 129.228 6.84389V4.88942H125.66V18.6449H129.377V11.5445C129.377 10.357 129.761 9.4416 130.517 8.84784C131.285 8.25408 132.412 8.06853 133.899 8.27882L134.048 8.30356V4.74098L133.948 4.72861Z" fill="#232323"/>
</svg>
